<svg width="24" height="24" viewBox="0 0 24 24" fill="none" xmlns="http://www.w3.org/2000/svg">
<path d="M5.90539 6.81654C5.44393 6.87858 5.24643 6.9858 5.11612 7.11612C4.9858 7.24643 4.87858 7.44393 4.81654 7.90539C4.79155 8.09122 4.77594 8.3014 4.76619 8.54457L11.441 11.882C11.7929 12.0579 12.2071 12.0579 12.559 11.882L19.2338 8.54457C19.2241 8.3014 19.2084 8.09122 19.1835 7.90539C19.1214 7.44393 19.0142 7.24643 18.8839 7.11612C18.7536 6.9858 18.5561 6.87858 18.0946 6.81654C17.6116 6.75159 16.964 6.75 16 6.75H8C7.03599 6.75 6.38843 6.75159 5.90539 6.81654Z" fill="#023C87"/>
<path d="M19.25 10.2135L13.2298 13.2236C12.4556 13.6107 11.5444 13.6107 10.7702 13.2236L4.75 10.2135V14C4.75 14.964 4.75159 15.6116 4.81654 16.0946C4.87858 16.5561 4.9858 16.7536 5.11612 16.8839C5.24643 17.0142 5.44393 17.1214 5.90539 17.1835C6.38843 17.2484 7.03599 17.25 8 17.25H16C16.964 17.25 17.6116 17.2484 18.0946 17.1835C18.5561 17.1214 18.7536 17.0142 18.8839 16.8839C19.0142 16.7536 19.1214 16.5561 19.1835 16.0946C19.2484 15.6116 19.25 14.964 19.25 14V10.2135Z" fill="#023C87"/>
<path fill-rule="evenodd" clip-rule="evenodd" d="M0 3C0 1.34315 1.34315 0 3 0H21C22.6569 0 24 1.34315 24 3V21C24 22.6569 22.6569 24 21 24H3C1.34315 24 0 22.6569 0 21V3ZM7.948 5.25H16.052C16.9505 5.24997 17.6997 5.24995 18.2945 5.32991C18.9223 5.41432 19.4891 5.59999 19.9445 6.05546C20.4 6.51093 20.5857 7.07773 20.6701 7.70552C20.7501 8.3003 20.75 9.04952 20.75 9.948V14.052C20.75 14.9505 20.7501 15.6997 20.6701 16.2945C20.5857 16.9223 20.4 17.4891 19.9445 17.9445C19.4891 18.4 18.9223 18.5857 18.2945 18.6701C17.6997 18.7501 16.9505 18.75 16.0521 18.75H7.94801C7.04955 18.75 6.30029 18.7501 5.70552 18.6701C5.07773 18.5857 4.51093 18.4 4.05546 17.9445C3.59999 17.4891 3.41432 16.9223 3.32991 16.2945C3.24994 15.6997 3.24997 14.9505 3.25 14.052V9.948C3.24997 9.04952 3.24994 8.3003 3.32991 7.70552C3.41432 7.07773 3.59999 6.51093 4.05546 6.05546C4.51093 5.59999 5.07773 5.41432 5.70552 5.32991C6.3003 5.24995 7.04952 5.24997 7.948 5.25Z" fill="#023C87"/>
</svg>
