<svg width="24" height="24" viewBox="0 0 24 24" fill="none" xmlns="http://www.w3.org/2000/svg">
<path d="M10 11C10 9.89543 10.8954 9 12 9C13.1046 9 14 9.89543 14 11C14 12.1046 13.1046 13 12 13C10.8954 13 10 12.1046 10 11Z" fill="#023C87"/>
<path fill-rule="evenodd" clip-rule="evenodd" d="M6 11C6 7.68629 8.68629 5 12 5C15.3137 5 18 7.68629 18 11C18 13.1458 16.9079 14.9159 15.545 16.2906C14.2223 17.6248 12.7234 18.5032 12 18.8837C11.2766 18.5032 9.77773 17.6248 8.45503 16.2906C7.09211 14.9159 6 13.1458 6 11ZM12 7C9.79086 7 8 8.79086 8 11C8 13.2091 9.79086 15 12 15C14.2091 15 16 13.2091 16 11C16 8.79086 14.2091 7 12 7Z" fill="#023C87"/>
<path fill-rule="evenodd" clip-rule="evenodd" d="M3 0C1.34315 0 0 1.34315 0 3V21C0 22.6569 1.34315 24 3 24H21C22.6569 24 24 22.6569 24 21V3C24 1.34315 22.6569 0 21 0H3ZM12 3C7.58172 3 4 6.58172 4 11C4 13.8706 5.46741 16.1178 7.03474 17.6987C8.60299 19.2805 10.3552 20.2838 11.1415 20.6917C11.6831 20.9726 12.3169 20.9726 12.8585 20.6917C13.6448 20.2838 15.397 19.2805 16.9653 17.6987C18.5326 16.1178 20 13.8706 20 11C20 6.58172 16.4183 3 12 3Z" fill="#023C87"/>
</svg>
