<svg width="35" height="34" viewBox="0 0 35 34" fill="none" xmlns="http://www.w3.org/2000/svg">
<path d="M5.92853 23.5471L6.20291 23.0018L5.94164 22.4501C5.15971 20.7991 4.7217 18.9525 4.7217 17C4.7217 9.95837 10.4301 4.25 17.4717 4.25C24.5133 4.25 30.2217 9.95837 30.2217 17C30.2217 24.0416 24.5133 29.75 17.4717 29.75C14.6191 29.75 11.9886 28.8147 9.86517 27.2335L9.36913 26.8642L8.77457 27.0344L3.39928 28.5734L5.92853 23.5471Z" fill="#00D95F" stroke="#EFEFEF" stroke-width="2.5"/>
<path d="M13.2314 10.9903L13.6913 10.5303C13.9842 10.2374 14.4591 10.2374 14.752 10.5303L16.6913 12.4697C16.9842 12.7626 16.9842 13.2374 16.6914 13.5303L15.347 14.8746C15.1229 15.0988 15.0673 15.4413 15.2091 15.7248C16.0286 17.3639 17.3577 18.693 18.9969 19.5126C19.2804 19.6544 19.6229 19.5988 19.847 19.3746L21.1913 18.0303C21.4842 17.7374 21.9591 17.7374 22.252 18.0303L24.1913 19.9697C24.4842 20.2626 24.4842 20.7374 24.1913 21.0303L23.7314 21.4903C22.1479 23.0738 19.641 23.252 17.8494 21.9083L16.9431 21.2286C15.6355 20.2478 14.4738 19.0862 13.4931 17.7786L12.8134 16.8723C11.4697 15.0807 11.6479 12.5738 13.2314 10.9903Z" fill="#EFEFEF"/>
</svg>
