<svg width="32" height="33" viewBox="0 0 32 33" fill="none" xmlns="http://www.w3.org/2000/svg">
<path d="M1.99359 29.9333L4.00415 22.4642C2.38268 19.5546 1.86753 16.1593 2.55321 12.9014C3.2389 9.64358 5.07943 6.74161 7.73707 4.72806C10.3947 2.71452 13.6912 1.72446 17.0216 1.93957C20.352 2.15468 23.4929 3.56052 25.868 5.89912C28.2431 8.23772 29.6931 11.3522 29.9518 14.6711C30.2106 17.99 29.2607 21.2906 27.2766 23.9673C25.2925 26.644 22.4072 28.5173 19.1501 29.2433C15.8931 29.9693 12.4828 29.4995 9.54506 27.9199L1.99359 29.9333ZM9.90918 25.1249L10.3762 25.4013C12.5041 26.6593 14.9894 27.1799 17.4449 26.8819C19.9003 26.584 22.188 25.4842 23.9514 23.7539C25.7148 22.0237 26.8549 19.7602 27.1939 17.3162C27.533 14.8722 27.052 12.385 25.8259 10.2422C24.5998 8.0993 22.6975 6.42119 20.4154 5.46933C18.1333 4.51747 15.5996 4.34534 13.2092 4.97975C10.8188 5.61416 8.70594 7.01947 7.19986 8.9767C5.69379 10.9339 4.87911 13.3331 4.88278 15.8004C4.88078 17.8462 5.448 19.8524 6.52131 21.5957L6.81418 22.0773L5.69017 26.2461L9.90918 25.1249Z" fill="#00D95F"/>
<path fill-rule="evenodd" clip-rule="evenodd" d="M21.2441 17.7183C20.9703 17.498 20.6497 17.343 20.3068 17.265C19.9638 17.187 19.6076 17.1881 19.2652 17.2682C18.7506 17.4814 18.4182 18.2868 18.0857 18.6894C18.0156 18.7859 17.9126 18.8536 17.796 18.8798C17.6794 18.906 17.5573 18.8888 17.4525 18.8315C15.5688 18.0957 13.9899 16.7462 12.9723 15.0022C12.8855 14.8934 12.8444 14.7552 12.8577 14.6168C12.871 14.4784 12.9376 14.3505 13.0435 14.2601C13.4143 13.8939 13.6865 13.4404 13.8351 12.9415C13.868 12.3912 13.7416 11.8431 13.4709 11.3624C13.2617 10.6886 12.8634 10.0886 12.3232 9.63334C12.0446 9.50834 11.7356 9.46643 11.4336 9.51266C11.1317 9.5589 10.8496 9.6913 10.6213 9.89389C10.2251 10.2348 9.91066 10.6601 9.70106 11.1384C9.49147 11.6166 9.39209 12.1357 9.41025 12.6573C9.41147 12.9502 9.44869 13.2419 9.52107 13.5258C9.70487 14.2079 9.98754 14.8596 10.3601 15.4602C10.6289 15.9203 10.9222 16.3657 11.2388 16.7945C12.2674 18.203 13.5605 19.399 15.0461 20.3159C15.7917 20.7818 16.5885 21.1607 17.4208 21.4449C18.2855 21.8359 19.2401 21.9859 20.1834 21.8792C20.7208 21.798 21.23 21.5864 21.6662 21.2628C22.1024 20.9393 22.4521 20.5138 22.6847 20.0238C22.8213 19.7277 22.8628 19.3968 22.8034 19.0763C22.6609 18.421 21.7823 18.0341 21.2441 17.7183Z" fill="#00D95F"/>
</svg>
